solid OpenSCAD_Model
  facet normal -1 0 0
    outer loop
      vertex 0 7.62939e-007 8.01086e-007
      vertex 0 84.8 23.1868
      vertex 0 84.8 8.01086e-007
    endloop
  endfacet
  facet normal -1 -0 0
    outer loop
      vertex 0 84.8 23.1868
      vertex 0 7.62939e-007 8.01086e-007
      vertex 0 7.62939e-007 23.1868
    endloop
  endfacet
  facet normal 0 0 -1
    outer loop
      vertex 0 7.62939e-007 8.01086e-007
      vertex 104.8 84.8 8.01086e-007
      vertex 104.8 7.62939e-007 8.01086e-007
    endloop
  endfacet
  facet normal -0 0 -1
    outer loop
      vertex 104.8 84.8 8.01086e-007
      vertex 0 7.62939e-007 8.01086e-007
      vertex 0 84.8 8.01086e-007
    endloop
  endfacet
  facet normal 1 -0 0
    outer loop
      vertex 104.8 7.62939e-007 23.1868
      vertex 104.8 84.8 8.01086e-007
      vertex 104.8 84.8 23.1868
    endloop
  endfacet
  facet normal 1 0 0
    outer loop
      vertex 104.8 84.8 8.01086e-007
      vertex 104.8 7.62939e-007 23.1868
      vertex 104.8 7.62939e-007 8.01086e-007
    endloop
  endfacet
  facet normal 0 -1 0
    outer loop
      vertex 0 7.62939e-007 8.01086e-007
      vertex 104.8 7.62939e-007 23.1868
      vertex 0 7.62939e-007 23.1868
    endloop
  endfacet
  facet normal 0 -1 -0
    outer loop
      vertex 104.8 7.62939e-007 23.1868
      vertex 0 7.62939e-007 8.01086e-007
      vertex 104.8 7.62939e-007 8.01086e-007
    endloop
  endfacet
  facet normal 0 1 0
    outer loop
      vertex 104.8 84.8 23.1868
      vertex 55 84.8 21.05
      vertex 55 84.8 23.1868
    endloop
  endfacet
  facet normal 0 1 0
    outer loop
      vertex 0 84.8 8.01086e-007
      vertex 55 84.8 21.05
      vertex 104.8 84.8 8.01086e-007
    endloop
  endfacet
  facet normal 0 1 -0
    outer loop
      vertex 104.8 84.8 8.01086e-007
      vertex 55 84.8 21.05
      vertex 104.8 84.8 23.1868
    endloop
  endfacet
  facet normal 0 1 -0
    outer loop
      vertex 19.8 84.8 21.05
      vertex 0 84.8 23.1868
      vertex 19.8 84.8 23.1868
    endloop
  endfacet
  facet normal 0 1 0
    outer loop
      vertex 55 84.8 21.05
      vertex 0 84.8 8.01086e-007
      vertex 19.8 84.8 21.05
    endloop
  endfacet
  facet normal 0 1 0
    outer loop
      vertex 19.8 84.8 21.05
      vertex 0 84.8 8.01086e-007
      vertex 0 84.8 23.1868
    endloop
  endfacet
  facet normal 1 -0 0
    outer loop
      vertex 1.8 1.8 23.1868
      vertex 1.8 83 1.8
      vertex 1.8 83 23.1868
    endloop
  endfacet
  facet normal 1 0 0
    outer loop
      vertex 1.8 83 1.8
      vertex 1.8 1.8 23.1868
      vertex 1.8 1.8 1.8
    endloop
  endfacet
  facet normal -0 0 1
    outer loop
      vertex 1.8 83 1.8
      vertex 103 1.8 1.8
      vertex 103 83 1.8
    endloop
  endfacet
  facet normal 0 0 1
    outer loop
      vertex 103 1.8 1.8
      vertex 1.8 83 1.8
      vertex 1.8 1.8 1.8
    endloop
  endfacet
  facet normal -1 0 0
    outer loop
      vertex 103 1.8 1.8
      vertex 103 83 23.1868
      vertex 103 83 1.8
    endloop
  endfacet
  facet normal -1 -0 0
    outer loop
      vertex 103 83 23.1868
      vertex 103 1.8 1.8
      vertex 103 1.8 23.1868
    endloop
  endfacet
  facet normal 0 1 -0
    outer loop
      vertex 103 1.8 1.8
      vertex 1.8 1.8 23.1868
      vertex 103 1.8 23.1868
    endloop
  endfacet
  facet normal 0 1 0
    outer loop
      vertex 1.8 1.8 23.1868
      vertex 103 1.8 1.8
      vertex 1.8 1.8 1.8
    endloop
  endfacet
  facet normal 0 -1 0
    outer loop
      vertex 1.8 83 23.1868
      vertex 19.8 83 21.05
      vertex 19.8 83 23.1868
    endloop
  endfacet
  facet normal 0 -1 -0
    outer loop
      vertex 19.8 83 21.05
      vertex 1.8 83 1.8
      vertex 55 83 21.05
    endloop
  endfacet
  facet normal 0 -1 0
    outer loop
      vertex 1.8 83 1.8
      vertex 19.8 83 21.05
      vertex 1.8 83 23.1868
    endloop
  endfacet
  facet normal 0 -1 0
    outer loop
      vertex 55 83 21.05
      vertex 103 83 23.1868
      vertex 55 83 23.1868
    endloop
  endfacet
  facet normal 0 -1 0
    outer loop
      vertex 103 83 1.8
      vertex 55 83 21.05
      vertex 1.8 83 1.8
    endloop
  endfacet
  facet normal 0 -1 0
    outer loop
      vertex 55 83 21.05
      vertex 103 83 1.8
      vertex 103 83 23.1868
    endloop
  endfacet
  facet normal 1 -0 0
    outer loop
      vertex 19.8 83.6 23.1868
      vertex 19.8 84.8 21.05
      vertex 19.8 84.8 23.1868
    endloop
  endfacet
  facet normal 1 0 0
    outer loop
      vertex 19.8 83 23.1868
      vertex 19.8 83.6 23.1868
      vertex 19.8 83 26.1868
    endloop
  endfacet
  facet normal 1 0 0
    outer loop
      vertex 19.8 83 21.05
      vertex 19.8 83.6 23.1868
      vertex 19.8 83 23.1868
    endloop
  endfacet
  facet normal 1 0 0
    outer loop
      vertex 19.8 83.6 23.1868
      vertex 19.8 83 21.05
      vertex 19.8 84.8 21.05
    endloop
  endfacet
  facet normal 1 0 0
    outer loop
      vertex 19.8 83.6 26.1868
      vertex 19.8 83 26.1868
      vertex 19.8 83.6 23.1868
    endloop
  endfacet
  facet normal -0 0 1
    outer loop
      vertex 19.8 84.8 21.05
      vertex 55 83 21.05
      vertex 55 84.8 21.05
    endloop
  endfacet
  facet normal 0 0 1
    outer loop
      vertex 55 83 21.05
      vertex 19.8 84.8 21.05
      vertex 19.8 83 21.05
    endloop
  endfacet
  facet normal -1 0 0
    outer loop
      vertex 55 84.8 21.05
      vertex 55 83.6 23.1868
      vertex 55 84.8 23.1868
    endloop
  endfacet
  facet normal -1 0 0
    outer loop
      vertex 55 83 21.05
      vertex 55 83.6 23.1868
      vertex 55 84.8 21.05
    endloop
  endfacet
  facet normal -1 0 0
    outer loop
      vertex 55 83 23.1868
      vertex 55 83.6 23.1868
      vertex 55 83 21.05
    endloop
  endfacet
  facet normal -1 0 0
    outer loop
      vertex 55 83.6 23.1868
      vertex 55 83 23.1868
      vertex 55 83.6 26.1868
    endloop
  endfacet
  facet normal -1 -0 0
    outer loop
      vertex 55 83.6 26.1868
      vertex 55 83 23.1868
      vertex 55 83 26.1868
    endloop
  endfacet
  facet normal 0 0 1
    outer loop
      vertex 19.8 84.8 23.1868
      vertex 1.2 83.6 23.1868
      vertex 19.8 83.6 23.1868
    endloop
  endfacet
  facet normal 0 0 1
    outer loop
      vertex 1.2 83.6 23.1868
      vertex 0 84.8 23.1868
      vertex 1.2 1.2 23.1868
    endloop
  endfacet
  facet normal -0 0 1
    outer loop
      vertex 0 84.8 23.1868
      vertex 1.2 83.6 23.1868
      vertex 19.8 84.8 23.1868
    endloop
  endfacet
  facet normal 0 0 1
    outer loop
      vertex 104.8 84.8 23.1868
      vertex 103.6 83.6 23.1868
      vertex 104.8 7.62939e-007 23.1868
    endloop
  endfacet
  facet normal -0 0 1
    outer loop
      vertex 55 84.8 23.1868
      vertex 103.6 83.6 23.1868
      vertex 104.8 84.8 23.1868
    endloop
  endfacet
  facet normal 0 0 1
    outer loop
      vertex 103.6 83.6 23.1868
      vertex 55 84.8 23.1868
      vertex 55 83.6 23.1868
    endloop
  endfacet
  facet normal -0 0 1
    outer loop
      vertex 103.6 1.2 23.1868
      vertex 104.8 7.62939e-007 23.1868
      vertex 103.6 83.6 23.1868
    endloop
  endfacet
  facet normal -0 0 1
    outer loop
      vertex 1.2 1.2 23.1868
      vertex 104.8 7.62939e-007 23.1868
      vertex 103.6 1.2 23.1868
    endloop
  endfacet
  facet normal 0 0 1
    outer loop
      vertex 1.2 1.2 23.1868
      vertex 0 7.62939e-007 23.1868
      vertex 104.8 7.62939e-007 23.1868
    endloop
  endfacet
  facet normal 0 0 1
    outer loop
      vertex 0 7.62939e-007 23.1868
      vertex 1.2 1.2 23.1868
      vertex 0 84.8 23.1868
    endloop
  endfacet
  facet normal -1 0 0
    outer loop
      vertex 1.2 1.2 23.1868
      vertex 1.2 83.6 26.1868
      vertex 1.2 83.6 23.1868
    endloop
  endfacet
  facet normal -1 -0 0
    outer loop
      vertex 1.2 83.6 26.1868
      vertex 1.2 1.2 23.1868
      vertex 1.2 1.2 26.1868
    endloop
  endfacet
  facet normal 1 -0 0
    outer loop
      vertex 103.6 1.2 26.1868
      vertex 103.6 83.6 23.1868
      vertex 103.6 83.6 26.1868
    endloop
  endfacet
  facet normal 1 0 0
    outer loop
      vertex 103.6 83.6 23.1868
      vertex 103.6 1.2 26.1868
      vertex 103.6 1.2 23.1868
    endloop
  endfacet
  facet normal 0 -1 0
    outer loop
      vertex 1.2 1.2 23.1868
      vertex 103.6 1.2 26.1868
      vertex 1.2 1.2 26.1868
    endloop
  endfacet
  facet normal 0 -1 -0
    outer loop
      vertex 103.6 1.2 26.1868
      vertex 1.2 1.2 23.1868
      vertex 103.6 1.2 23.1868
    endloop
  endfacet
  facet normal 0 0 1
    outer loop
      vertex 19.8 83.6 26.1868
      vertex 1.8 83 26.1868
      vertex 19.8 83 26.1868
    endloop
  endfacet
  facet normal 0 0 1
    outer loop
      vertex 1.8 83 26.1868
      vertex 1.2 83.6 26.1868
      vertex 1.8 1.8 26.1868
    endloop
  endfacet
  facet normal -0 0 1
    outer loop
      vertex 1.2 83.6 26.1868
      vertex 1.8 83 26.1868
      vertex 19.8 83.6 26.1868
    endloop
  endfacet
  facet normal 0 0 1
    outer loop
      vertex 103.6 83.6 26.1868
      vertex 103 83 26.1868
      vertex 103.6 1.2 26.1868
    endloop
  endfacet
  facet normal -0 0 1
    outer loop
      vertex 55 83.6 26.1868
      vertex 103 83 26.1868
      vertex 103.6 83.6 26.1868
    endloop
  endfacet
  facet normal 0 0 1
    outer loop
      vertex 103 83 26.1868
      vertex 55 83.6 26.1868
      vertex 55 83 26.1868
    endloop
  endfacet
  facet normal -0 0 1
    outer loop
      vertex 103 1.8 26.1868
      vertex 103.6 1.2 26.1868
      vertex 103 83 26.1868
    endloop
  endfacet
  facet normal -0 0 1
    outer loop
      vertex 1.8 1.8 26.1868
      vertex 103.6 1.2 26.1868
      vertex 103 1.8 26.1868
    endloop
  endfacet
  facet normal 0 0 1
    outer loop
      vertex 1.8 1.8 26.1868
      vertex 1.2 1.2 26.1868
      vertex 103.6 1.2 26.1868
    endloop
  endfacet
  facet normal 0 0 1
    outer loop
      vertex 1.2 1.2 26.1868
      vertex 1.8 1.8 26.1868
      vertex 1.2 83.6 26.1868
    endloop
  endfacet
  facet normal 0 1 -0
    outer loop
      vertex 19.8 83.6 23.1868
      vertex 1.2 83.6 26.1868
      vertex 19.8 83.6 26.1868
    endloop
  endfacet
  facet normal 0 1 0
    outer loop
      vertex 1.2 83.6 26.1868
      vertex 19.8 83.6 23.1868
      vertex 1.2 83.6 23.1868
    endloop
  endfacet
  facet normal 0 1 -0
    outer loop
      vertex 103.6 83.6 23.1868
      vertex 55 83.6 26.1868
      vertex 103.6 83.6 26.1868
    endloop
  endfacet
  facet normal 0 1 0
    outer loop
      vertex 55 83.6 26.1868
      vertex 103.6 83.6 23.1868
      vertex 55 83.6 23.1868
    endloop
  endfacet
  facet normal 1 -0 0
    outer loop
      vertex 1.8 1.8 26.1868
      vertex 1.8 83 23.1868
      vertex 1.8 83 26.1868
    endloop
  endfacet
  facet normal 1 0 0
    outer loop
      vertex 1.8 83 23.1868
      vertex 1.8 1.8 26.1868
      vertex 1.8 1.8 23.1868
    endloop
  endfacet
  facet normal -1 0 0
    outer loop
      vertex 103 1.8 23.1868
      vertex 103 83 26.1868
      vertex 103 83 23.1868
    endloop
  endfacet
  facet normal -1 -0 0
    outer loop
      vertex 103 83 26.1868
      vertex 103 1.8 23.1868
      vertex 103 1.8 26.1868
    endloop
  endfacet
  facet normal 0 -1 0
    outer loop
      vertex 1.8 83 23.1868
      vertex 19.8 83 26.1868
      vertex 1.8 83 26.1868
    endloop
  endfacet
  facet normal 0 -1 -0
    outer loop
      vertex 19.8 83 26.1868
      vertex 1.8 83 23.1868
      vertex 19.8 83 23.1868
    endloop
  endfacet
  facet normal 0 -1 0
    outer loop
      vertex 55 83 23.1868
      vertex 103 83 26.1868
      vertex 55 83 26.1868
    endloop
  endfacet
  facet normal 0 -1 -0
    outer loop
      vertex 103 83 26.1868
      vertex 55 83 23.1868
      vertex 103 83 23.1868
    endloop
  endfacet
  facet normal 0 1 -0
    outer loop
      vertex 103 1.8 23.1868
      vertex 1.8 1.8 26.1868
      vertex 103 1.8 26.1868
    endloop
  endfacet
  facet normal 0 1 0
    outer loop
      vertex 1.8 1.8 26.1868
      vertex 103 1.8 23.1868
      vertex 1.8 1.8 23.1868
    endloop
  endfacet
endsolid OpenSCAD_Model
